<svg width="728" height="548" viewBox="0 0 728 548" fill="none" xmlns="http://www.w3.org/2000/svg">
<path d="M326.977 47.1072C326.977 34.2364 331.861 23.1675 341.629 13.9005C351.912 4.6335 364.251 0 378.647 0H728C728 30.89 722.602 53.5426 711.805 67.9579C701.522 81.8584 684.556 88.8087 660.906 88.8087H430.317V219.319H635.456C635.456 250.209 630.058 272.861 619.261 287.277C608.978 301.177 592.012 308.127 568.362 308.127H430.317V474.161C430.317 499.903 422.091 518.694 405.639 530.535C389.187 541.862 362.966 547.525 326.977 547.525V47.1072Z" fill="white"/>
<path d="M0 82.0722C0 57.2335 8.35268 37.7174 25.058 23.5239C41.7634 8.82341 64.2903 1.47317 92.6388 1.47317L336.35 403.946L356.887 396.865L336.35 344.542L349.294 20.4824C382.198 20.4824 383.464 7.80958 400.169 20.4824C417.381 33.1552 425.987 51.911 425.987 76.7497V478.224C425.987 496.98 417.887 513.201 401.688 526.888C385.995 540.574 348.214 543.545 327.451 548L76.6928 123.893L69.0994 130.736L100.232 182.441V472.141C100.232 496.98 91.6264 515.736 74.4148 528.409C57.7094 541.081 32.9045 547.418 0 547.418V82.0722Z" fill="white"/>
</svg>
